<svg xmlns="http://www.w3.org/2000/svg" width="60" height="51" viewBox="0 0 60 51"><defs><mask id="b74eb" width="2" height="2" x="-1" y="-1"><path fill="#fff" d="M10 1h40v5H10z"/><path d="M12.5 1h35a2.5 2.5 0 1 1 0 5h-35a2.5 2.5 0 1 1 0-5z"/></mask><filter id="b74ea" width="86" height="61" x="-13" y="-22" filterUnits="userSpaceOnUse"><feOffset dy="10" in="SourceGraphic" result="FeOffset1025Out"/><feGaussianBlur in="FeOffset1025Out" result="FeGaussianBlur1026Out" stdDeviation="5.2 5.2"/></filter><linearGradient id="b74ec" x1="10" x2="50" y1="4" y2="3" gradientUnits="userSpaceOnUse"><stop offset="0" stop-color="#ffb027"/><stop offset="1" stop-color="#d88f10"/></linearGradient><mask id="b74ee" width="2" height="2" x="-1" y="-1"><path fill="#fff" d="M10 13h40v5H10z"/><path d="M12.5 13h35a2.5 2.5 0 0 1 0 5h-35a2.5 2.5 0 1 1 0-5z"/></mask><filter id="b74ed" width="86" height="61" x="-13" y="-10" filterUnits="userSpaceOnUse"><feOffset dy="10" in="SourceGraphic" result="FeOffset1057Out"/><feGaussianBlur in="FeOffset1057Out" result="FeGaussianBlur1058Out" stdDeviation="5.2 5.2"/></filter><linearGradient id="b74ef" x1="10" x2="50" y1="15" y2="16" gradientUnits="userSpaceOnUse"><stop offset="0" stop-color="#ffb027"/><stop offset="1" stop-color="#d88f10"/></linearGradient><mask id="b74eh" width="2" height="2" x="-1" y="-1"><path fill="#fff" d="M10 25h40v5H10z"/><path d="M12.5 25h35a2.5 2.5 0 0 1 0 5h-35a2.5 2.5 0 0 1 0-5z"/></mask><filter id="b74eg" width="86" height="61" x="-13" y="2" filterUnits="userSpaceOnUse"><feOffset dy="10" in="SourceGraphic" result="FeOffset1089Out"/><feGaussianBlur in="FeOffset1089Out" result="FeGaussianBlur1090Out" stdDeviation="5.2 5.2"/></filter><linearGradient id="b74ei" x1="10" x2="50" y1="27" y2="28" gradientUnits="userSpaceOnUse"><stop offset="0" stop-color="#ffb027"/><stop offset="1" stop-color="#d88f10"/></linearGradient></defs><g><g><g><g filter="url(#b74ea)"><path fill="none" d="M12.5 1h35a2.5 2.5 0 1 1 0 5h-35a2.5 2.5 0 1 1 0-5z" mask="url(&quot;#b74eb&quot;)"/><path fill="#ed6d17" fill-opacity=".36" d="M12.5 1h35a2.5 2.5 0 1 1 0 5h-35a2.5 2.5 0 1 1 0-5z"/></g><path fill="#f3f7ff" d="M12.5 1h35a2.5 2.5 0 1 1 0 5h-35a2.5 2.5 0 1 1 0-5z"/><path fill="url(#b74ec)" d="M12.5 1h35a2.5 2.5 0 1 1 0 5h-35a2.5 2.5 0 1 1 0-5z"/></g><g><g filter="url(#b74ed)"><path fill="none" d="M12.5 13h35a2.5 2.5 0 0 1 0 5h-35a2.5 2.5 0 1 1 0-5z" mask="url(&quot;#b74ee&quot;)"/><path fill="#ed6d17" fill-opacity=".36" d="M12.5 13h35a2.5 2.5 0 0 1 0 5h-35a2.5 2.5 0 1 1 0-5z"/></g><path fill="#f3f7ff" d="M12.5 13h35a2.5 2.5 0 0 1 0 5h-35a2.5 2.5 0 1 1 0-5z"/><path fill="url(#b74ef)" d="M12.5 13h35a2.5 2.5 0 0 1 0 5h-35a2.5 2.5 0 1 1 0-5z"/></g><g><g filter="url(#b74eg)"><path fill="none" d="M12.5 25h35a2.5 2.5 0 0 1 0 5h-35a2.5 2.5 0 0 1 0-5z" mask="url(&quot;#b74eh&quot;)"/><path fill="#ed6d17" fill-opacity=".36" d="M12.5 25h35a2.5 2.5 0 0 1 0 5h-35a2.5 2.5 0 0 1 0-5z"/></g><path fill="#f3f7ff" d="M12.5 25h35a2.5 2.5 0 0 1 0 5h-35a2.5 2.5 0 0 1 0-5z"/><path fill="url(#b74ei)" d="M12.5 25h35a2.5 2.5 0 0 1 0 5h-35a2.5 2.5 0 0 1 0-5z"/></g></g></g></svg>